<svg width="50" height="51" viewBox="0 0 50 51" fill="none" xmlns="http://www.w3.org/2000/svg">
<path d="M9.625 38C11.75 36.375 14.125 35.0938 16.75 34.1562C19.375 33.2188 22.125 32.75 25 32.75C27.875 32.75 30.625 33.2188 33.25 34.1562C35.875 35.0938 38.25 36.375 40.375 38C41.8333 36.2917 42.9688 34.3542 43.7813 32.1875C44.5938 30.0208 45 27.7083 45 25.25C45 19.7083 43.0521 14.9896 39.1563 11.0938C35.2604 7.19792 30.5417 5.25 25 5.25C19.4583 5.25 14.7396 7.19792 10.8438 11.0938C6.94792 14.9896 5 19.7083 5 25.25C5 27.7083 5.40625 30.0208 6.21875 32.1875C7.03125 34.3542 8.16667 36.2917 9.625 38ZM25 27.75C22.5417 27.75 20.4688 26.9063 18.7813 25.2188C17.0938 23.5313 16.25 21.4583 16.25 19C16.25 16.5417 17.0938 14.4688 18.7813 12.7813C20.4688 11.0938 22.5417 10.25 25 10.25C27.4583 10.25 29.5313 11.0938 31.2188 12.7813C32.9063 14.4688 33.75 16.5417 33.75 19C33.75 21.4583 32.9063 23.5313 31.2188 25.2188C29.5313 26.9063 27.4583 27.75 25 27.75ZM25 50.25C21.5417 50.25 18.2917 49.5937 15.25 48.2812C12.2083 46.9687 9.5625 45.1875 7.3125 42.9375C5.0625 40.6875 3.28125 38.0417 1.96875 35C0.65625 31.9583 0 28.7083 0 25.25C0 21.7917 0.65625 18.5417 1.96875 15.5C3.28125 12.4583 5.0625 9.8125 7.3125 7.5625C9.5625 5.3125 12.2083 3.53125 15.25 2.21875C18.2917 0.90625 21.5417 0.25 25 0.25C28.4583 0.25 31.7083 0.90625 34.75 2.21875C37.7917 3.53125 40.4375 5.3125 42.6875 7.5625C44.9375 9.8125 46.7187 12.4583 48.0312 15.5C49.3437 18.5417 50 21.7917 50 25.25C50 28.7083 49.3437 31.9583 48.0312 35C46.7187 38.0417 44.9375 40.6875 42.6875 42.9375C40.4375 45.1875 37.7917 46.9687 34.75 48.2812C31.7083 49.5937 28.4583 50.25 25 50.25ZM25 45.25C27.2083 45.25 29.2917 44.9271 31.25 44.2813C33.2083 43.6354 35 42.7083 36.625 41.5C35 40.2917 33.2083 39.3646 31.25 38.7187C29.2917 38.0729 27.2083 37.75 25 37.75C22.7917 37.75 20.7083 38.0729 18.75 38.7187C16.7917 39.3646 15 40.2917 13.375 41.5C15 42.7083 16.7917 43.6354 18.75 44.2813C20.7083 44.9271 22.7917 45.25 25 45.25ZM25 22.75C26.0833 22.75 26.9792 22.3958 27.6875 21.6875C28.3958 20.9792 28.75 20.0833 28.75 19C28.75 17.9167 28.3958 17.0208 27.6875 16.3125C26.9792 15.6042 26.0833 15.25 25 15.25C23.9167 15.25 23.0208 15.6042 22.3125 16.3125C21.6042 17.0208 21.25 17.9167 21.25 19C21.25 20.0833 21.6042 20.9792 22.3125 21.6875C23.0208 22.3958 23.9167 22.75 25 22.75Z" fill="url(#paint0_linear_679_133)"/>
<defs>
<linearGradient id="paint0_linear_679_133" x1="-6.49618" y1="17.6551" x2="54.7846" y2="40.0041" gradientUnits="userSpaceOnUse">
<stop stop-color="#FF0000"/>
<stop offset="1" stop-color="#FFC700"/>
</linearGradient>
</defs>
</svg>
