<svg width="24" height="23" viewBox="0 0 24 23" fill="none" xmlns="http://www.w3.org/2000/svg">
<path fill-rule="evenodd" clip-rule="evenodd" d="M12.0002 4.21366L10.9247 3.0836C8.4001 0.43094 3.77096 1.34634 2.09991 4.68133C1.31538 6.24992 1.13838 8.51465 2.57092 11.405C3.95096 14.188 6.82205 17.5214 12.0002 21.1523C17.1784 17.5214 20.048 14.188 21.4295 11.405C22.862 8.51311 22.6865 6.24992 21.9005 4.68133C20.2295 1.34634 15.6003 0.429406 13.0757 3.08206L12.0002 4.21366ZM12.0002 23C-11 7.46432 4.91849 -4.66124 11.7362 1.75267C11.8262 1.837 11.9147 1.9244 12.0002 2.01487C12.0848 1.92448 12.1729 1.83753 12.2642 1.7542C19.0804 -4.66431 35.0004 7.46278 12.0002 23Z" fill="#595959"/>
</svg>
