<svg width="24" height="24" viewBox="0 0 24 24" fill="none" xmlns="http://www.w3.org/2000/svg">
<path d="M6.8052 6.3956L10.32 1.79621C10.54 1.51412 10.7959 1.30256 11.0877 1.16151C11.3793 1.02047 11.6843 0.949951 12.0027 0.949951C12.3209 0.949951 12.625 1.02047 12.915 1.16151C13.205 1.30256 13.46 1.51412 13.68 1.79621L17.1948 6.3956L22.53 8.20356C22.99 8.36476 23.35 8.63787 23.61 9.02292C23.87 9.40797 24 9.83331 24 10.299C24 10.5139 23.9697 10.7285 23.9091 10.9427C23.8483 11.1569 23.7486 11.3621 23.61 11.5584L20.19 16.4848L20.31 21.7134C20.31 22.338 20.1 22.8669 19.68 23.3001C19.26 23.7334 18.7582 23.95 18.1746 23.95C18.1382 23.95 17.95 23.9197 17.61 23.8593L12 22.2877L6.3966 23.8569C6.2922 23.8988 6.1849 23.9248 6.0747 23.9348C5.9645 23.9449 5.8635 23.95 5.7717 23.95C5.1839 23.95 4.685 23.7314 4.275 23.2944C3.865 22.8576 3.67 22.3205 3.69 21.6832L3.81 16.447L0.39 11.5281C0.2514 11.3301 0.1517 11.123 0.0909 10.907C0.0303 10.6909 0 10.4748 0 10.2588C0 9.79533 0.1292 9.37613 0.3876 9.00116C0.646 8.62639 1.0068 8.36053 1.47 8.20356L6.8052 6.3956ZM7.89 7.96178L1.62 10.0774L5.64 15.9408L5.49 22.197L12 20.3836L18.51 22.2272L18.36 15.9408L22.38 10.1379L16.11 7.96178L12 2.58201L7.89 7.96178Z" fill="#595959"/>
</svg>
