<svg width="77" height="51" viewBox="0 0 77 51" fill="none" xmlns="http://www.w3.org/2000/svg">
<path d="M22.9091 0.963501C21.5568 1.29436 20.3096 2.31702 19.6785 3.61037C19.393 4.22698 19.3179 4.60295 19.3179 5.64065C19.3029 6.81369 19.3479 6.99417 19.8138 7.86643C20.6252 9.3553 21.9174 10.2276 23.5853 10.408L24.4869 10.4983L25.7341 9.26506C26.8159 8.21233 27.0564 8.0469 27.5071 8.0469H28.018L29.0398 10.9946L26.8159 14.649C25.148 17.3711 24.5169 18.2735 24.3517 18.2133C24.2164 18.1682 23.4952 17.8975 22.7288 17.6117C14.7049 14.4987 5.65912 18.0629 1.7373 25.8983C-1.46327 32.2899 -0.155999 40.0801 4.95289 45.1934C10.7981 51.0436 19.8288 51.7805 26.5906 46.983C30.1968 44.4264 32.7813 40.2305 33.3974 35.8992L33.5927 34.5908L36.3726 34.5006C37.8902 34.4555 39.1524 34.4104 39.1524 34.3953C39.4079 34.0194 43.9608 28.2293 43.9908 28.2594C44.0059 28.2895 43.8857 28.876 43.7204 29.5678C42.8789 33.0869 43.2846 36.9971 44.8473 40.3508C45.779 42.3059 46.7557 43.7196 48.2282 45.1934C53.247 50.2014 60.8201 51.5549 67.1461 48.5621C69.7457 47.3289 71.669 45.81 73.3519 43.6293C78.566 36.8768 77.98 27.4623 71.9695 21.4317C68.5436 18.0028 63.9606 16.2432 59.1222 16.5289L57.4693 16.6192L55.9817 10.1073C55.1553 6.543 54.4641 3.52014 54.419 3.41487C54.3589 3.26448 55.4708 3.2344 60.0688 3.26448C65.5684 3.3096 65.8088 3.32463 66.1995 3.62542C66.9959 4.21194 67.2363 4.69319 67.2363 5.64065C67.2363 6.58811 66.9959 7.06936 66.1995 7.65588C65.8539 7.92659 65.5233 7.98674 64.1409 8.01682L62.5031 8.07698V10.4832L64.3513 10.4231C66.0943 10.3629 66.2295 10.3328 67.1311 9.85159C68.1829 9.29514 68.6337 8.82893 69.2348 7.68596C69.5654 7.03928 69.6255 6.72346 69.6255 5.64065C69.6255 4.55784 69.5654 4.24202 69.2348 3.59534C68.6488 2.46741 68.1829 1.98616 67.1311 1.41467L66.1845 0.903343L52.4355 0.81311L52.0599 1.18909C51.8495 1.39963 51.6842 1.70042 51.6842 1.86584C51.6842 2.12151 53.3972 9.79143 53.5625 10.2576C53.6076 10.408 51.3386 10.4531 42.5333 10.4531H31.444L31.0383 9.3553C30.8279 8.76878 30.6476 8.22737 30.6476 8.15218C30.6476 8.09202 31.9699 8.0469 33.5927 8.0469C37.1239 8.0469 37.4995 7.95666 38.5364 6.91897C39.6032 5.86623 39.9037 4.73831 39.483 3.32463C39.2426 2.49749 37.9954 1.24925 37.169 1.00862C36.4778 0.813113 23.7356 0.767993 22.9091 0.963501ZM36.8835 3.61037C37.1239 3.83596 37.2591 4.15178 37.2591 4.43752C37.2591 4.72327 37.1239 5.03909 36.8835 5.26467L36.5228 5.64065H25.9595L24.7273 6.82874C23.5252 8.01682 23.5102 8.01682 23.0594 7.83635C21.6469 7.23479 21.1962 5.30979 22.1879 4.1217C22.9242 3.24944 22.9091 3.24944 30.0165 3.2344H36.5228L36.8835 3.61037ZM52.6459 13.0399C52.4355 13.3858 39.0472 30.6055 38.927 30.6657C38.8669 30.7108 37.4995 27.1465 35.9068 22.7401C34.314 18.3336 32.8414 14.3182 32.6461 13.7918L32.3005 12.8594H42.5333C50.6625 12.8594 52.7361 12.9045 52.6459 13.0399ZM33.3523 22.7852C35.1104 27.6278 36.5829 31.7033 36.628 31.8537C36.6881 32.0944 36.5679 32.1094 35.1404 32.0793L33.5927 32.0342L33.3974 30.7258C32.8264 26.7555 30.7378 23.101 27.3869 20.2135L26.6206 19.5518L28.3486 16.7244C29.2953 15.1754 30.1067 13.9121 30.1217 13.9422C30.1367 13.9723 31.5943 17.9426 33.3523 22.7852ZM54.8848 16.0026C55.0351 16.6192 55.0952 17.1756 55.0351 17.2358C54.975 17.2809 54.6444 17.4162 54.3138 17.5215C53.9832 17.6268 53.1718 17.9877 52.5107 18.3336C51.8495 18.6645 51.2485 18.9653 51.1884 18.9953C51.1132 19.0254 51.8345 18.078 52.7661 16.8748C53.6977 15.6567 54.5091 14.7242 54.5542 14.7844C54.5993 14.8446 54.7496 15.386 54.8848 16.0026ZM20.3246 19.3262C20.9858 19.4916 21.9024 19.8225 22.3983 20.0481L23.2698 20.4541L19.4531 26.6953C16.8987 30.8762 15.6215 33.0719 15.6215 33.3576C15.6215 33.6133 15.7717 33.9291 15.9971 34.1397L16.3577 34.5156H31.2036L31.0683 35.3729C30.7378 37.5535 29.746 40.035 28.589 41.6291C24.532 47.2237 17.4096 49.2389 11.1136 46.5619C9.50582 45.8701 8.04828 44.8475 6.60577 43.4037C4.6674 41.4637 3.42023 39.2379 2.74405 36.5309C2.38342 35.1022 2.38342 31.5229 2.74405 30.0942C3.42023 27.4022 4.6674 25.1764 6.60577 23.2213C8.81461 20.9655 11.2338 19.6721 14.3142 19.0856C15.8318 18.7998 18.807 18.9201 20.3246 19.3262ZM63.5699 19.3112C66.2596 20.003 68.3482 21.2211 70.3167 23.2213C72.255 25.1764 73.5022 27.4022 74.1784 30.0942C74.539 31.5229 74.539 35.1022 74.1784 36.5309C73.4872 39.3131 72.3001 41.4035 70.2415 43.4639C68.1829 45.5242 66.1093 46.6973 63.3145 47.4041C61.7668 47.7951 58.1605 47.75 56.6278 47.3289C53.8931 46.592 51.8796 45.419 49.8811 43.4037C47.9427 41.4637 46.6955 39.2379 46.0194 36.5309C45.6287 34.9668 45.6738 31.3725 46.0945 29.8084C46.8007 27.2217 47.9577 25.1764 49.806 23.3115C50.5573 22.5446 51.4739 21.7174 51.8645 21.4617C53.1568 20.5895 55.7413 19.4014 55.7413 19.6721C55.7413 19.7924 58.9118 33.5381 58.9569 33.5682C58.9869 33.6133 61.1657 33.0569 61.2108 32.9817C61.2409 32.9516 60.5346 29.8235 59.6481 26.0186L58.0553 19.1006L58.431 18.9953C59.1673 18.7998 62.3828 18.9953 63.5699 19.3112ZM26.3501 22.5295C28.8144 24.6951 30.5575 27.9135 31.0683 31.2371L31.2036 32.1094H25.133C21.8122 32.1094 19.0775 32.0643 19.0775 32.0192C19.0775 31.8688 25.2983 21.7324 25.3885 21.7324C25.4335 21.7324 25.8693 22.0934 26.3501 22.5295Z" fill="url(#paint0_linear_745_2)"/>
<path d="M14.5696 21.5069C9.611 22.5145 5.97467 26.1991 5.013 31.177C4.89279 31.7936 4.80263 32.5155 4.80263 32.8012V33.3125H7.20682V32.8162C7.22184 31.0717 8.31875 28.4248 9.65608 26.9209C10.5426 25.9133 12.2406 24.7553 13.4877 24.2891C13.9536 24.1086 14.9002 23.883 15.5914 23.7928L16.8236 23.6274V21.2813L16.1925 21.2963C15.8318 21.2963 15.1106 21.4016 14.5696 21.5069Z" fill="url(#paint1_linear_745_2)"/>
<path d="M69.6555 34.2901C69.37 37.0873 67.8073 39.674 65.4482 41.2532C64.0508 42.1856 62.9388 42.6067 61.3461 42.8323L60.0989 42.9977V45.3889L61.1207 45.2987C64.8321 44.9377 68.1229 42.9526 70.1814 39.8094C71.2333 38.2002 71.8794 36.3203 72.0747 34.3201L72.1649 33.3125H69.7607L69.6555 34.2901Z" fill="url(#paint2_linear_745_2)"/>
<defs>
<linearGradient id="paint0_linear_745_2" x1="-10.5" y1="25" x2="78.6656" y2="46.8093" gradientUnits="userSpaceOnUse">
<stop stop-color="#C7C7C7"/>
<stop offset="1" stop-color="#5D5D5D"/>
</linearGradient>
<linearGradient id="paint1_linear_745_2" x1="-10.5" y1="25" x2="78.6656" y2="46.8093" gradientUnits="userSpaceOnUse">
<stop stop-color="#C7C7C7"/>
<stop offset="1" stop-color="#5D5D5D"/>
</linearGradient>
<linearGradient id="paint2_linear_745_2" x1="-10.5" y1="25" x2="78.6656" y2="46.8093" gradientUnits="userSpaceOnUse">
<stop stop-color="#C7C7C7"/>
<stop offset="1" stop-color="#5D5D5D"/>
</linearGradient>
</defs>
</svg>
