<svg width="24" height="23" viewBox="0 0 24 23" fill="none" xmlns="http://www.w3.org/2000/svg">
<path d="M6.8052 5.44565L10.32 0.846255C10.54 0.56417 10.7959 0.352606 11.0877 0.211564C11.3793 0.0705212 11.6843 0 12.0027 0C12.3209 0 12.625 0.0705212 12.915 0.211564C13.205 0.352606 13.46 0.56417 13.68 0.846255L17.1948 5.44565L22.53 7.25361C22.99 7.4148 23.35 7.68792 23.61 8.07297C23.87 8.45801 24 8.88336 24 9.349C24 9.56399 23.9697 9.77858 23.9091 9.99276C23.8483 10.2069 23.7486 10.4122 23.61 10.6084L20.19 15.5348L20.31 20.7635C20.31 21.3881 20.1 21.917 19.68 22.3502C19.26 22.7834 18.7582 23 18.1746 23C18.1382 23 17.95 22.9698 17.61 22.9093L12 21.3377L6.3966 22.9069C6.2922 22.9488 6.1849 22.9748 6.0747 22.9849C5.9645 22.995 5.8635 23 5.7717 23C5.1839 23 4.685 22.7815 4.275 22.3445C3.865 21.9076 3.67 21.3706 3.69 20.7332L3.81 15.497L0.39 10.5782C0.2514 10.3801 0.1517 10.1731 0.0909 9.9571C0.0303 9.7409 0 9.5248 0 9.3088C0 8.84538 0.1292 8.42618 0.3876 8.05121C0.646 7.67644 1.0068 7.41057 1.47 7.25361L6.8052 5.44565Z" fill="url(#paint0_linear_726_25)"/>
<defs>
<linearGradient id="paint0_linear_726_25" x1="-3.11817" y1="8.00636" x2="25.993" y2="19.0848" gradientUnits="userSpaceOnUse">
<stop stop-color="#FF0000"/>
<stop offset="1" stop-color="#FFC700"/>
</linearGradient>
</defs>
</svg>
