<svg width="87" height="51" viewBox="0 0 87 51" fill="none" xmlns="http://www.w3.org/2000/svg">
<path d="M44.212 0.607788C42.6679 1.27636 41.6488 2.73506 41.6488 4.22414C41.6488 5.07505 42.2664 5.95635 45.8179 10.1197C48.1032 12.794 49.987 15.0732 49.987 15.1644C49.987 15.4683 27.7826 41.4209 26.887 42.1807C26.4238 42.5757 25.0341 43.3963 23.7679 44.0041C21.6988 44.9765 21.2664 45.0677 18.8267 45.0677C13.1753 45.0677 8.72824 42.0895 6.65912 36.9537C5.76354 34.7352 5.79442 30.5415 6.72089 28.2623C8.07971 24.8586 10.7047 22.2755 14.1635 20.9384C16.0782 20.1787 20.7414 19.9963 22.2856 20.6041L23.1194 20.9688L20.6488 23.9166C18.5488 26.4085 18.1782 27.0163 18.1782 27.9584C18.1782 30.4199 21.0503 31.7267 22.9341 30.116C23.6753 29.4779 40.7532 9.48153 41.2473 8.69141C41.8958 7.59738 41.7105 6.41219 40.7223 5.43973L39.8267 4.52804L30.2841 4.61921L20.7414 4.71038L19.5988 5.59167C18.3944 6.47297 17.2826 8.44829 17.2518 9.63348V10.3324L24.6635 10.3932L32.1061 10.4844L29.6047 13.4018L27.1032 16.3496L25.837 15.7418C21.7606 13.7969 15.9238 13.8576 11.2297 15.8633C0.112078 20.6345 -3.47027 34.0667 3.75619 43.6698C8.9753 50.5682 18.487 52.9082 26.4856 49.2311C29.512 47.8331 31.3958 46.2833 34.3914 42.7277L37.1091 39.5064H44.0885H51.0679L52.1179 41.5425C54.4031 45.8578 59.4678 49.535 64.6561 50.5986C70.8634 51.8749 76.9472 50.082 81.4869 45.5843C84.1737 42.9708 85.5634 40.6004 86.4281 37.1968C87.5707 32.8207 86.984 27.928 84.8222 23.9166C83.309 21.0903 79.6957 17.6563 76.7619 16.2888C71.3575 13.7361 65.1811 13.7057 60.209 16.228C59.2517 16.7446 59.2208 16.7446 58.387 15.7722C56.7811 13.9184 56.6884 13.9792 61.012 13.9792C64.5325 13.9792 65.1502 13.888 66.509 13.2498C68.3928 12.3989 69.1958 11.548 70.0913 9.6031C71.2649 6.9896 70.5855 4.16337 68.3002 1.97532C66.3855 0.151946 65.3046 0 54.8046 0C46.312 0 45.3855 0.0607763 44.212 0.607788ZM64.4399 6.47297C64.7796 6.83765 64.7796 7.05037 64.5325 7.56699C64.1928 8.17478 63.9767 8.20517 58.0164 8.20517H51.8708L51.0987 7.20232C50.6355 6.62492 50.2958 6.10829 50.2958 6.04752C50.2958 5.98674 53.384 5.95635 57.1517 5.98674C62.6178 6.04752 64.0693 6.13869 64.4399 6.47297ZM54.6193 20.4522C54.9281 20.8472 57.1517 23.4303 59.5605 26.2262C64.6252 32.1217 64.6561 32.1217 67.0649 29.9337C68.9487 28.2623 68.9178 28.1407 65.6752 24.3116C62.8649 20.9992 62.8958 20.9384 66.3237 20.3306C70.3075 19.6316 74.384 20.9384 77.2869 23.795C79.3252 25.8007 80.4369 27.8976 80.931 30.663C82.1046 37.4095 77.2869 43.9433 70.2766 45.0069C64.9649 45.8274 59.4678 42.9404 57.059 38.1085C56.534 37.0752 56.0399 35.6773 55.9473 34.9784L55.762 33.7324H49.0296C45.2929 33.7324 42.2664 33.6716 42.2664 33.5804C42.2664 33.4893 43.8414 31.6051 45.7561 29.3563C47.6399 27.1379 50.2649 24.0685 51.5311 22.549C52.7973 21.0296 53.909 19.7836 53.9708 19.7836C54.0326 19.7532 54.3105 20.0571 54.6193 20.4522Z" fill="black"/>
</svg>
